<svg width="179" height="221" viewBox="0 0 179 221" fill="none" xmlns="http://www.w3.org/2000/svg">
<g clip-path="url(#clip0_223_56)">
<path d="M0 0C59.07 0 118.14 0 179 0C179 72.93 179 145.86 179 221C119.93 221 60.86 221 0 221C0 148.07 0 75.14 0 0Z" fill="#FEFEFD"/>
<path d="M50 104C59.9 104 69.8 104 80 104C80 105.65 80 107.3 80 109C78.68 109 77.36 109 76 109C76 120.88 76 132.76 76 145C92.0049 144.911 92.0049 144.911 105.742 137.57C109.142 133.876 109.345 130.359 109.25 125.438C108.72 120.961 108.116 118.319 104.688 115.312C102.251 113.606 99.6756 112.293 97 111C97 109.02 97 107.04 97 105C106.52 105.529 114.198 109.258 120.66 116.312C124.125 120.677 124.384 124.527 124 130C123 133.438 123 133.438 122 136C121.34 136 120.68 136 120 136C119.729 136.598 119.459 137.196 119.18 137.812C115.385 144.849 108.674 147.134 101.379 149.336C100.594 149.555 99.8088 149.774 99 150C104.252 162.834 120.318 174.892 132.492 180.125C134.984 180.995 137.401 181.553 140 182C140 182.99 140 183.98 140 185C116.222 187.423 116.222 187.423 109.695 182.27C106.836 179.406 104.482 176.222 102.248 172.855C100.42 170.137 98.3023 167.686 96.1875 165.188C94.083 162.595 91.9968 159.996 89.9531 157.355C89.288 156.537 88.6228 155.718 87.9375 154.875C87.369 154.151 86.8005 153.426 86.2148 152.68C83.3891 150.246 83.3891 150.246 76 150C76 161.88 76 173.76 76 186C67.09 186 58.18 186 49 186C49 184.68 49 183.36 49 182C49.6755 181.951 50.3509 181.902 51.0469 181.852C52.3849 181.739 52.3849 181.739 53.75 181.625C55.0726 181.521 55.0726 181.521 56.4219 181.414C59.0088 180.999 60.7068 180.215 63 179C62.9155 170.611 62.8206 162.223 62.7125 153.834C62.6626 149.939 62.6162 146.044 62.5781 142.148C62.5412 138.387 62.4948 134.627 62.4419 130.866C62.4234 129.433 62.4083 128 62.3967 126.566C62.3797 124.556 62.3496 122.545 62.3188 120.534C62.3055 119.391 62.2922 118.247 62.2785 117.069C61.9967 113.963 61.4473 111.755 60 109C57.6088 107.967 57.6088 107.967 54.875 107.688C53.5099 107.477 53.5099 107.477 52.1172 107.262C51.4185 107.175 50.7198 107.089 50 107C50 106.01 50 105.02 50 104Z" fill="#39271D"/>
<path d="M95 17C98.489 19.0121 100.445 21.2705 101.68 25.1172C101.984 27.7833 101.888 29.4559 101 32C98.853 34.349 96.6324 36.1988 94.0664 38.0781C91.6264 40.3475 91.3092 41.7391 91 45C91.7142 44.9265 92.4283 44.853 93.1641 44.7773C101.096 45.4001 108.886 54.2406 114 60C114.48 60.6381 114.959 61.2762 115.453 61.9336C123.311 72.1134 136.114 76.344 148 80C162.832 84.9272 162.832 84.9272 167 91C167.732 94.0796 167.532 95.7556 167 99C165.313 101.062 165.313 101.062 163 102C157.763 101.765 154.444 98.6088 150.5 95.5C149.06 94.3969 147.618 93.2954 146.176 92.1953C145.465 91.6504 144.754 91.1054 144.022 90.5439C133.304 82.3596 122.02 76.0512 110 70C109.283 69.637 108.566 69.2741 107.827 68.9001C98.6871 63.8964 98.6871 63.8964 88.6875 62.0625C85.809 63.0666 83.5992 64.405 81 66C79.5707 66.583 78.1318 67.1426 76.6875 67.6875C60.2746 74.1057 46.0342 83.183 32.2798 94.1138C22.2451 102.071 22.2451 102.071 18.8125 101.875C17 101 17 101 15 98C14.4603 94.762 14.1819 93.0713 15 90C19.9111 83.7731 26.147 81.5222 33.5625 79.5625C43.1766 76.7824 51.3979 73.043 60 68C60.7502 67.6764 61.5005 67.3529 62.2735 67.0195C64.5196 65.6932 64.9445 64.3542 66 62C70.8073 55.734 76.6176 49.1702 84 46C86.75 45.875 86.75 45.875 89 46C88.7835 44.4222 88.7835 44.4222 88.5625 42.8125C89 39 89 39 90.5235 37.4922C91.7797 36.6359 93.0628 35.8174 94.3711 35.043C96.1697 34.0874 96.1697 34.0874 97 32C97.4063 28.6165 97.4928 25.3765 97 22C94.3806 19.3806 92.6096 19.1016 89 18.5C84.9594 19.1734 83.63 20.9436 81 24C79.375 25.8125 79.375 25.8125 78 27C77.01 27 76.02 27 75 27C75 26.34 75 25.68 75 25C75.99 25 76.98 25 78 25C78.2063 24.2575 78.4125 23.515 78.625 22.75C82.0965 15.8071 88.1306 14.7224 95 17Z" fill="#39271D"/>
<path d="M41 89C72.35 89 103.7 89 136 89C136 94.94 136 100.88 136 107C135.34 107 134.68 107 134 107C133.781 106.385 133.562 105.77 133.336 105.137C133.019 104.328 132.702 103.52 132.375 102.688C132.073 101.887 131.772 101.086 131.461 100.262C129.447 97.1437 127.41 96.4189 124 95C120.626 94.5034 120.626 94.5034 117.07 94.4883C115.326 94.4386 115.326 94.4386 113.547 94.3879C111.358 94.3506 111.358 94.3506 109.125 94.3125C104.464 94.2094 99.8025 94.1063 95 94C95 109.84 95 125.68 95 142C91.04 142 87.08 142 83 142C83 126.16 83 110.32 83 94C78.3594 94.0825 73.7188 94.165 68.9375 94.25C67.4872 94.2658 66.0369 94.2816 64.5427 94.2979C55.0414 94.4966 55.0414 94.4966 47 99C45.581 101.045 45.581 101.045 45.0625 103.25C44.7119 104.487 44.3613 105.725 44 107C43.01 107 42.02 107 41 107C41 101.06 41 95.12 41 89Z" fill="#39271D"/>
<path d="M54 94C63.57 94 73.14 94 83 94C83 109.84 83 125.68 83 142C86.96 142 90.92 142 95 142C95 126.16 95 110.32 95 94C104.57 94 114.14 94 124 94C124 94.33 124 94.66 124 95C114.76 95 105.52 95 96 95C96 97.97 96 100.94 96 104C97.32 104.33 98.64 104.66 100 105C99.01 105 98.02 105 97 105C97 106.98 97 108.96 97 111C98.0209 111.309 98.0209 111.309 99.0625 111.625C103.138 113.533 106.371 115.255 109 119C110.525 124.213 111.043 129.301 109.055 134.445C105.242 140.176 100.402 142.773 94 145C88.06 145 82.12 145 76 145C76 133.12 76 121.24 76 109C77.32 109 78.64 109 80 109C80 107.35 80 105.7 80 104C70.1 104 60.2 104 50 104C50 104.99 50 105.98 50 107C52.64 107 55.28 107 58 107C58 107.33 58 107.66 58 108C55.03 108 52.06 108 49 108C49 106.35 49 104.7 49 103C59.56 103 70.12 103 81 103C81.33 100.36 81.66 97.72 82 95C72.76 95 63.52 95 54 95C54 94.67 54 94.34 54 94Z" fill="#F8F4EE"/>
<path d="M83 155C83.66 155 84.32 155 85 155C86.6211 156.645 86.6211 156.645 88.4375 158.812C90.8376 161.719 90.8376 161.719 93.582 164.276C95.5882 166.715 95.3996 168.493 95.4414 171.621C95.4678 172.721 95.4943 173.822 95.5215 174.955C95.535 176.104 95.5486 177.253 95.5625 178.438C95.597 180.707 95.6396 182.977 95.6914 185.246C95.7037 186.253 95.7161 187.261 95.7288 188.299C96.0061 191.061 96.4375 192.715 98 195C100.867 195.923 100.867 195.923 104.125 196.25C105.221 196.4 106.316 196.549 107.445 196.703C108.71 196.85 108.71 196.85 110 197C110 197.99 110 198.98 110 200C96.14 200 82.28 200 68 200C68 199.01 68 198.02 68 197C68.6755 196.89 69.3509 196.781 70.0469 196.668C70.9389 196.509 71.8309 196.351 72.75 196.188C73.6317 196.037 74.5134 195.886 75.4219 195.73C78.4497 194.873 79.8216 194.296 82 192C82.4257 189.086 82.6049 186.533 82.6094 183.613C82.6259 182.796 82.6424 181.979 82.6595 181.137C82.7081 178.529 82.7294 175.921 82.75 173.312C82.7782 171.544 82.8081 169.775 82.8398 168.006C82.9138 163.671 82.9633 159.336 83 155Z" fill="#39271D"/>
<path d="M54 94C63.57 94 73.14 94 83 94C83 110.17 83 126.34 83 143C86.96 143 90.92 143 95 143C94.505 143.99 94.505 143.99 94 145C88.06 145 82.12 145 76 145C76 133.12 76 121.24 76 109C77.32 109 78.64 109 80 109C80 107.35 80 105.7 80 104C70.1 104 60.2 104 50 104C50 104.99 50 105.98 50 107C52.64 107 55.28 107 58 107C58 107.33 58 107.66 58 108C55.03 108 52.06 108 49 108C49 106.35 49 104.7 49 103C59.56 103 70.12 103 81 103C81.33 100.36 81.66 97.72 82 95C72.76 95 63.52 95 54 95C54 94.67 54 94.34 54 94Z" fill="#F2EADE"/>
<path d="M95 17C98.489 19.0121 100.445 21.2705 101.68 25.1172C101.984 27.7833 101.888 29.4559 101 32C98.853 34.349 96.6324 36.1988 94.0664 38.0781C91.6264 40.3475 91.3092 41.7391 91 45C92.65 45 94.3 45 96 45C96.33 45.66 96.66 46.32 97 47C94.36 46.67 91.72 46.34 89 46C88.5625 42.8125 88.5625 42.8125 89 39C90.6666 37.3505 92.3564 36.2355 94.3711 35.043C96.1697 34.0874 96.1697 34.0874 97 32C97.4063 28.6165 97.4928 25.3765 97 22C94.3806 19.3806 92.6096 19.1016 89 18.5C84.9594 19.1734 83.6299 20.9436 81 24C79.375 25.8125 79.375 25.8125 78 27C77.01 27 76.02 27 75 27C75 26.34 75 25.68 75 25C75.99 25 76.98 25 78 25C78.2062 24.2575 78.4125 23.515 78.625 22.75C82.0965 15.8071 88.1306 14.7224 95 17Z" fill="#39271D"/>
<path d="M84 151C85.1458 152.146 86.291 153.292 87.4336 154.441C88.5406 155.543 89.659 156.633 90.7852 157.715C94.0949 160.926 96.8626 163.851 99 168C98.01 168 97.02 168 96 168C96 175.59 96 183.18 96 191C95.67 191 95.34 191 95 191C95.0168 190.29 95.0337 189.58 95.051 188.848C96.055 175.022 96.055 175.022 91.9297 162.406C89.7203 160.328 87.5176 158.673 85 157C85 156.34 85 155.68 85 155C84.34 155 83.68 155 83 155C83 167.21 83 179.42 83 192C82.67 192 82.34 192 82 192C82 179.46 82 166.92 82 154C82.66 153.67 83.32 153.34 84 153C84 152.34 84 151.68 84 151Z" fill="#E7D9C5"/>
<path d="M41 86C41.66 86.33 42.32 86.66 43 87C45.9284 87.1229 48.8346 87.1858 51.7642 87.2053C53.1252 87.2202 53.1252 87.2202 54.5138 87.2353C57.5222 87.267 60.5306 87.2917 63.5391 87.3164C65.6213 87.337 67.7035 87.358 69.7857 87.3794C75.2733 87.4346 80.7609 87.484 86.2486 87.5322C91.8455 87.5824 97.4423 87.6381 103.039 87.6934C114.026 87.801 125.013 87.9024 136 88C136 88.33 136 88.66 136 89C104.65 89 73.3 89 41 89C41 94.94 41 100.88 41 107C40.67 107 40.34 107 40 107C39.7746 103.876 39.5726 100.751 39.375 97.625C39.3105 96.7355 39.2461 95.8461 39.1797 94.9297C39.1281 94.0789 39.0766 93.2281 39.0234 92.3516C38.9711 91.566 38.9187 90.7805 38.8647 89.9712C39 88 39 88 41 86Z" fill="#39271D"/>
<path d="M101 23C101.593 26.1652 101.743 28.8506 101 32C98.8704 34.3831 96.6422 36.1916 94.0664 38.0781C91.6264 40.3475 91.3092 41.7391 91 45C92.65 45 94.3 45 96 45C96.33 45.66 96.66 46.32 97 47C94.36 46.67 91.72 46.34 89 46C88.5625 42.8125 88.5625 42.8125 89 39C90.4883 37.7734 90.4883 37.7734 92.375 36.6875C94.9929 35.1231 95.8506 34.444 96.8398 31.5039C97.1471 29.7135 97.4077 27.9143 97.6133 26.1094C97.8047 25.0652 97.8047 25.0652 98 24C100 23 100 23 101 23Z" fill="#39271D"/>
<path d="M101 23C101.63 31.1926 101.63 31.1926 99 34.5625C98.34 35.0369 97.68 35.5112 97 36C96.01 35.67 95.02 35.34 94 35C94.4744 34.67 94.9487 34.34 95.4375 34C97.2122 31.7283 97.2905 30.6854 97.5625 27.875C97.7791 25.9569 97.7791 25.9569 98 24C100 23 100 23 101 23Z" fill="#39271D"/>
<path d="M51 95C51.66 95.33 52.32 95.66 53 96C52.6017 96.4589 52.2034 96.9178 51.793 97.3906C49.0886 100.523 46.4201 103.639 44 107C44.3743 101.636 45.996 99.5035 50 96C50.33 95.67 50.66 95.34 51 95Z" fill="#39271D"/>
<path d="M93 17C95.8896 18.2953 98.0104 19.513 100 22C100.293 24.2617 100.293 24.2617 100.188 26.6875C100.16 27.4957 100.133 28.304 100.105 29.1367C100.071 29.7516 100.036 30.3665 100 31C99.67 31 99.34 31 99 31C98.9136 30.3967 98.8273 29.7934 98.7383 29.1719C97.7896 23.7172 97.7896 23.7172 94.375 19.4375C93.5913 18.9631 92.8075 18.4888 92 18C92.33 17.67 92.66 17.34 93 17Z" fill="#39271D"/>
<path d="M81 19C81.33 19.99 81.66 20.98 82 22C80.25 24.6875 80.25 24.6875 78 27C77.01 27 76.02 27 75 27C75 26.34 75 25.68 75 25C75.99 25 76.98 25 78 25C78.3094 24.1956 78.6188 23.3913 78.9375 22.5625C80 20 80 20 81 19Z" fill="#39271D"/>
</g>
<defs>
<clipPath id="clip0_223_56">
<rect width="179" height="221" fill="white"/>
</clipPath>
</defs>
</svg>
